# xmcd
# Copyright (C) 1995-1998 Ti Kan
#
# Track frame offsets:
#       150
#       25308
#       43363
#       61335
#       78045
#       98179
#       116876
#       132572
#       153782
#       171219
#       193583
#
# Disc length: 2874 seconds
#
# Revision: 0
# Processed by: cddbd v1.5.1PL0 Copyright (c) Steve Scherf et al.
# Submitted via: CD-Transfer v1.0
#
DISCID=920b380b
DTITLE=One For The Road - The Other Side
DYEAR=2004
DGENRE=
TTITLE0=Dance Beneath The Sun
TTITLE1=Let It Go
TTITLE2=Sentimental Crime
TTITLE3=Back For More
TTITLE4=Cold Winter Night In Harlem
TTITLE5=Steal A Ray From Heaven
TTITLE6=Three Ain't A Crowd
TTITLE7=Don't Abandon Me
TTITLE8=It Was Fate
TTITLE9=Irate
TTITLE10=The Othe Side
EXTD=
EXTT0=
EXTT1=
EXTT2=
EXTT3=
EXTT4=
EXTT5=
EXTT6=
EXTT7=
EXTT8=
EXTT9=
EXTT10=
PLAYORDER=
